Coordinates
version=1
nRows=33
nColumns=24
inDegrees=yes

Units are S.I. units (second, meters, Newtons, ...)
If the header above contains a line with 'inDegrees', this indicates whether rotational values are in degrees (yes) or radians (no).

endheader
time	pelvis_tilt	pelvis_list	pelvis_rotation	pelvis_tx	pelvis_ty	pelvis_tz	hip_flexion_r	hip_adduction_r	hip_rotation_r	knee_angle_r	ankle_angle_r	subtalar_angle_r	mtp_angle_r	hip_flexion_l	hip_adduction_l	hip_rotation_l	knee_angle_l	ankle_angle_l	subtalar_angle_l	mtp_angle_l	lumbar_extension	lumbar_bending	lumbar_rotation
0.200000	10.390648	2.395062	-181.052584	0.231444	0.848921	-1.206600	16.945371	-10.240367	-31.773390	-10.691949	-1.544034	11.674218	0.000000	15.858962	-16.022187	-32.782465	-9.217357	-0.893579	13.966662	0.000000	2.230993	0.947111	-0.468277
0.205000	10.382814	2.382661	-181.040397	0.231520	0.848912	-1.206612	16.945433	-10.255238	-31.764850	-10.703359	-1.552281	11.669486	0.000000	15.875402	-16.016208	-32.772192	-9.265125	-0.894815	13.964675	0.000000	2.217084	0.929154	-0.471558
0.210000	10.380439	2.389995	-181.039597	0.231577	0.848898	-1.206613	16.957544	-10.252182	-31.747751	-10.728970	-1.554551	11.667776	0.000000	15.879302	-16.026115	-32.760669	-9.252750	-0.881567	13.970179	0.000000	2.205923	0.936019	-0.471467
0.215000	10.373116	2.434684	-181.065251	0.231636	0.848960	-1.206621	16.990222	-10.214751	-31.810661	-10.811310	-1.599776	11.628255	0.000000	15.877468	-16.083030	-32.754294	-9.264457	-0.887197	13.950695	0.000000	2.189496	0.990594	-0.422881
0.220000	10.361288	2.437407	-181.064506	0.231689	0.848976	-1.206629	16.989527	-10.216588	-31.792122	-10.829456	-1.595658	11.632020	0.000000	15.891115	-16.098911	-32.741656	-9.321399	-0.904085	13.938903	0.000000	2.167251	0.996935	-0.427353
0.225000	10.352285	2.415205	-181.046654	0.231767	0.848927	-1.206672	16.963536	-10.229988	-31.725205	-10.774673	-1.539266	11.652985	0.000000	15.919873	-16.090236	-32.710113	-9.389854	-0.891479	13.930336	0.000000	2.148696	0.955594	-0.444299
0.230000	10.338092	2.400409	-181.033283	0.231869	0.848906	-1.206726	16.967155	-10.249793	-31.676255	-10.811350	-1.500246	11.616532	0.000000	15.936917	-16.083369	-32.647843	-9.430014	-0.805087	13.914572	0.000000	2.120834	0.930360	-0.473224
0.235000	10.319482	2.394715	-181.021466	0.231960	0.848924	-1.206775	16.966229	-10.261435	-31.654087	-10.839664	-1.499001	11.608500	0.000000	15.952462	-16.090148	-32.618416	-9.479297	-0.815849	13.911829	0.000000	2.089419	0.918932	-0.470662
0.240000	10.322735	2.403198	-181.011159	0.232073	0.848924	-1.206778	16.997218	-10.250783	-31.569789	-10.877410	-1.433540	11.406604	0.000000	15.995744	-16.094420	-32.436153	-9.526961	-0.804790	13.711942	0.000000	2.075204	0.935852	-0.485521
0.245000	10.298249	2.413186	-181.027882	0.232144	0.848967	-1.206795	17.011427	-10.251624	-31.571215	-10.943948	-1.448984	11.391450	0.000000	15.992967	-16.122175	-32.427815	-9.572052	-0.831011	13.689213	0.000000	2.033562	0.947589	-0.450280
0.250000	10.270153	2.425972	-181.042163	0.232245	0.849063	-1.206815	17.033304	-10.256151	-31.582281	-11.049272	-1.488401	11.370719	0.000000	15.997825	-16.153731	-32.407603	-9.645286	-0.843126	13.661824	0.000000	1.982384	0.967509	-0.428126
0.255000	10.332812	2.533167	-181.084288	0.232623	0.848924	-1.207358	17.144891	-10.095953	-31.535797	-11.087844	-1.438606	11.296762	0.000000	16.172005	-16.361282	-32.358530	-9.838299	-0.787215	13.547620	0.000000	2.002793	1.020182	-0.367163
0.260000	10.353598	2.525716	-181.040539	0.232841	0.848871	-1.207417	17.194602	-10.097619	-31.375491	-11.126888	-1.512781	10.992867	0.000000	16.276621	-16.362559	-32.159020	-9.939973	-0.726034	13.449365	0.000000	1.996454	0.994839	-0.414878
0.265000	10.306264	2.490843	-181.032453	0.232957	0.848867	-1.207476	17.163112	-10.123042	-31.177386	-11.128138	-1.374473	10.911799	0.000000	16.276315	-16.348367	-32.140591	-10.014355	-0.684907	13.401238	0.000000	1.920565	0.941771	-0.399093
0.270000	10.299674	2.480847	-181.032543	0.233125	0.848915	-1.207528	17.212460	-10.129209	-31.020112	-11.206626	-1.315303	10.696964	0.000000	16.327360	-16.352571	-32.052987	-10.117236	-0.688738	13.255846	0.000000	1.882957	0.932605	-0.389545
0.275000	10.262334	2.482417	-181.036153	0.233247	0.848964	-1.207567	17.232923	-10.145891	-30.993197	-11.311221	-1.301728	10.639633	0.000000	16.355834	-16.392781	-32.030848	-10.237398	-0.683328	13.215762	0.000000	1.814964	0.941982	-0.367869
0.280000	10.240284	2.463982	-181.017948	0.233455	0.848974	-1.207624	17.269030	-10.182370	-30.906888	-11.416572	-1.245827	10.559394	0.000000	16.428396	-16.408964	-31.949358	-10.405052	-0.620377	13.172936	0.000000	1.751445	0.922793	-0.383821
0.285000	10.267378	2.446513	-181.007522	0.233735	0.848933	-1.207714	17.367691	-10.188913	-30.643092	-11.509341	-1.282562	10.155081	0.000000	16.545531	-16.408565	-31.750109	-10.529067	-0.621887	12.917651	0.000000	1.736941	0.895226	-0.369838
0.290000	10.303304	2.435146	-180.985713	0.234081	0.848897	-1.207714	17.528174	-10.246794	-30.633897	-11.740397	-1.313773	10.022696	0.000000	16.689617	-16.411548	-31.564696	-10.669927	-0.609938	12.717606	0.000000	1.717097	0.887809	-0.374999
0.295000	10.233184	2.387427	-180.974614	0.234223	0.848902	-1.207751	17.531832	-10.316251	-30.437549	-11.869413	-1.124267	9.942023	0.000000	16.701595	-16.394734	-31.450338	-10.827334	-0.533688	12.631969	0.000000	1.596468	0.828003	-0.353140
0.300000	10.220620	2.397086	-180.959870	0.234467	0.848942	-1.207771	17.644665	-10.352679	-30.381125	-12.120718	-1.079996	9.761718	0.000000	16.807445	-16.440954	-31.289043	-11.023168	-0.511328	12.459562	0.000000	1.526314	0.846087	-0.356775
0.305000	10.171887	2.378337	-180.941219	0.234719	0.848981	-1.207873	17.702094	-10.409727	-30.320266	-12.322068	-1.009681	9.663550	0.000000	16.881146	-16.473001	-31.205621	-11.238017	-0.460885	12.380371	0.000000	1.410254	0.815211	-0.348011
0.310000	10.214863	2.315362	-180.915727	0.235147	0.848835	-1.208006	17.849422	-10.446695	-29.783896	-12.434395	-0.960716	9.032022	0.000000	17.070375	-16.409177	-30.719106	-11.441907	-0.459515	11.693529	0.000000	1.379997	0.724651	-0.335656
0.315000	10.201956	2.283589	-180.884719	0.235486	0.848780	-1.208135	17.969335	-10.522930	-29.614224	-12.686441	-0.867019	8.934671	0.000000	17.208057	-16.429762	-30.551110	-11.684226	-0.332151	11.666716	0.000000	1.285737	0.689198	-0.378437
0.320000	10.229060	2.255878	-180.878877	0.235934	0.848679	-1.208264	18.169401	-10.575076	-29.319158	-12.963045	-0.812708	8.511979	0.000000	17.402126	-16.446402	-30.283364	-11.945782	-0.314497	11.277076	0.000000	1.225531	0.638403	-0.327238
0.325000	10.116390	2.331191	-180.887358	0.236162	0.848788	-1.208505	18.216472	-10.537766	-29.280522	-13.300652	-0.719650	8.358775	0.000000	17.452086	-16.614177	-30.123472	-12.267432	-0.231728	11.189206	0.000000	1.016016	0.739392	-0.358909
0.330000	10.173147	2.272370	-180.874312	0.236713	0.848610	-1.208443	18.489234	-10.643829	-28.941645	-13.645877	-0.660936	7.848927	0.000000	17.701636	-16.562993	-29.659321	-12.547566	-0.229093	10.523263	0.000000	0.962532	0.687963	-0.330248
0.335000	10.101942	2.255369	-180.853949	0.237051	0.848585	-1.208684	18.608054	-10.714860	-28.768488	-14.015815	-0.497976	7.725944	0.000000	17.838483	-16.639118	-29.473596	-12.936520	-0.091610	10.466648	0.000000	0.775423	0.654005	-0.359018
0.340000	10.171512	2.217918	-180.823224	0.237668	0.848367	-1.208853	18.910458	-10.787813	-28.383590	-14.392751	-0.449049	7.187677	0.000000	18.181430	-16.676022	-29.138310	-13.366004	-0.004162	10.086645	0.000000	0.718253	0.597190	-0.371061
0.345000	10.171671	2.223044	-180.780063	0.238236	0.848219	-1.209115	19.143032	-10.817093	-28.047367	-14.800594	-0.369396	6.678360	0.000000	18.456718	-16.750402	-28.698828	-13.794608	0.102212	9.648137	0.000000	0.576073	0.581300	-0.405334
0.350000	10.172762	2.160303	-180.755408	0.238818	0.848023	-1.209214	19.417704	-10.948299	-27.721406	-15.272608	-0.211534	6.314606	0.000000	18.740091	-16.760838	-28.332950	-14.262612	0.205310	9.255190	0.000000	0.431403	0.518122	-0.403309
0.355000	10.233820	2.069157	-180.732092	0.239557	0.847704	-1.209225	19.802704	-11.130202	-27.374343	-15.813533	-0.044111	5.949300	0.000000	19.115720	-16.729429	-27.893365	-14.765959	0.288998	8.758801	0.000000	0.335566	0.432911	-0.375484
0.360000	10.174230	2.049320	-180.701390	0.240161	0.847522	-1.209384	20.029630	-11.198620	-26.975186	-16.311341	0.086815	5.386589	0.000000	19.373749	-16.769030	-27.325860	-15.288969	0.398064	8.118490	0.000000	0.105315	0.405762	-0.380017
